<svg xmlns="http://www.w3.org/2000/svg" xmlns:xlink="http://www.w3.org/1999/xlink" width="1400" zoomAndPan="magnify" viewBox="0 0 1050 1049.999947" height="1400" preserveAspectRatio="xMidYMid meet" version="1.0"><defs><clipPath id="44045eeb30"><path d="M 51 274.089844 L 999 274.089844 L 999 818.589844 L 51 818.589844 Z M 51 274.089844 " clip-rule="nonzero"/></clipPath><clipPath id="4ed206f113"><path d="M 459.992188 239.964844 L 590.207031 239.964844 L 590.207031 363.890625 L 459.992188 363.890625 Z M 459.992188 239.964844 " clip-rule="nonzero"/></clipPath><clipPath id="c03b29088b"><path d="M 525 239.964844 L 540.347656 287.300781 L 590.007812 287.300781 L 549.832031 316.554688 L 565.175781 363.890625 L 525 334.636719 L 484.824219 363.890625 L 500.167969 316.554688 L 459.992188 287.300781 L 509.652344 287.300781 Z M 525 239.964844 " clip-rule="nonzero"/></clipPath></defs><g clip-path="url(#44045eeb30)"><path fill="#ceb46b" d="M 998.628906 818.601562 L 797.496094 818.601562 L 797.496094 340.738281 L 626.324219 448.359375 L 721.753906 510.953125 L 721.753906 818.601562 L 573.839844 818.601562 L 573.839844 457.972656 L 525.007812 425.941406 L 476.171875 457.972656 L 476.171875 818.601562 L 328.257812 818.601562 L 328.257812 510.953125 L 423.6875 448.359375 L 252.515625 340.738281 L 252.515625 818.601562 L 51.386719 818.601562 L 51.386719 781.769531 L 215.699219 781.769531 L 215.699219 274.089844 L 457.554688 426.144531 L 525.007812 381.902344 L 592.460938 426.144531 L 834.316406 274.089844 L 834.316406 781.773438 L 998.628906 781.773438 Z M 610.660156 781.773438 L 684.9375 781.773438 L 684.9375 530.847656 L 610.660156 482.125 Z M 365.078125 781.773438 L 439.355469 781.773438 L 439.355469 482.125 L 365.078125 530.847656 Z M 365.078125 781.773438 " fill-opacity="1" fill-rule="nonzero"/></g><g clip-path="url(#4ed206f113)"><g clip-path="url(#c03b29088b)"><path fill="#ceb46b" d="M 459.992188 239.964844 L 590.207031 239.964844 L 590.207031 363.890625 L 459.992188 363.890625 Z M 459.992188 239.964844 " fill-opacity="1" fill-rule="nonzero"/></g></g></svg>